<?xml version="1.0" encoding="UTF-8"?>
<svg id="Backgrounds" xmlns="http://www.w3.org/2000/svg" viewBox="0 0 1280.09 1024">
  <defs>
    <style>
      .cls-1 {
        fill: #00bcf5;
      }

      .cls-2 {
        fill: #67e2ff;
      }

      .cls-3 {
        fill: #c2e2ff;
      }

      .cls-4 {
        fill: #d1e2ff;
      }

      .cls-5 {
        fill: #c0e7ff;
      }

      .cls-6 {
        fill: #b9e2ff;
      }

      .cls-7 {
        fill: #9de2ff;
      }

      .cls-8 {
        fill: #a1e2ff;
      }
    </style>
  </defs>
  <path class="cls-1" d="m1091.74,886.63c-13.25,4.53-181.95,19.57-181.95,19.57,0,0-239.09,10.79-266.27,0s-130.67-29.22-130.67-29.22c0,0-39.69-32.61,0-59.54,33.58-22.78,81.58-78.96,129.37-92.76,26.72-27.86,80.82-45.62,80.82-45.62,0,0,254.11,10.33,309.9-39.25,50.5-44.89,216.12-29.34,247.05-25.99v-148.99h-675.57c8.48,19.23,15.24,49.94,14.35,57.08-.32,2.54.9,8.16,2.9,15.13l3.1-.13c-.65,5.17,7.56,20.05,13.22,36.1,5.27,14.95,8,31.31,8,31.31,0,0-77.39,27.46-93.62,31.12-16.23,3.65-82.39-1.16-103.55-9.66-21.17-8.5-72.45,4.76-85.97.48-13.51-4.28-68.38,21.76-68.38,21.76h-59.16s-94.87-17.48-118.59-21.22c-14.97-2.36-74.71,3.53-116.74,8.21v389.02h1280v-118.47c-29.14-3.85-176.32-22.99-188.26-18.91Zm-725.44,73.37c-8.7,24-98.3,34-112.7,32.64s-53.61-6.64-115.61-.64-85-32-85-32c0,0,.31-1.84.62-4.42-1.78-2.2-2.62-3.58-2.62-3.58,0,0,3-18,0-20.62-3-2.62,21-20.38,39-31.38s38-22,38-22c0,0,45,6,57.87,16s40.7,0,40.7,0h45.43c6,0,14.04,16.99,14.04,16.99,0,0,33.96,16.01,51.96,9.01,14.01-5.45,27.41,2.44,28.56,17.52,2.65,5.78,2.99,13.5-.26,22.48Z"/>
  <path class="cls-8" d="m52.9,379.14c2.41.19,36.29,1.3,36.29,1.3,1.68-1.16,5.57-2.82,10.87-4.88h0c25.13-9.75,82.31-28.58,90.56-47.13,9.99-22.47,33.7-84.88,51.18-96.12s53.68-86.13,53.68-86.13c0,0,47.43-41.19,53.68,0,.66,4.38,1.85,8.89,3.44,13.46,6.02,14.18,17.3,33.84,17.3,33.84h0c17.06,26.71,38.23,50.03,38.74,56.42.81,10.09,65.35,64.8,75.33,64.8s54.92,63.66,62.41,81.14c7.49,17.48,34.95,47.43,47.43,53.68,3.56,1.78,7.23,7.64,10.62,15.32h675.57V0H0v376.28c12.2-2.36,33.86.46,52.9,2.85Z"/>
  <path class="cls-2" d="m364.3,952c-8.7,24-98.3,34-112.7,32.64s-53.61-6.64-115.61-.64c-50.17,4.86-74.8-19.1-82.38-28.42-.32,2.58-.62,4.42-.62,4.42,0,0,23,38,85,32s101.22-.72,115.61.64,104-8.64,112.7-32.64c3.25-8.98,2.91-16.7.26-22.48.33,4.29-.33,9.16-2.26,14.48Z"/>
  <path class="cls-6" d="m136,984c62-6,101.22-.72,115.61.64s104-8.64,112.7-32.64c1.93-5.32,2.59-10.19,2.26-14.48-1.15-15.08-14.55-22.97-28.56-17.52-18,7-51.96-9.01-51.96-9.01,0,0-8.04-16.99-14.04-16.99h-45.43s-27.83,10-40.7,0-57.87-16-57.87-16c0,0-20,11-38,22s-42,28.76-39,31.38c3,2.62,0,20.62,0,20.62,0,0,.84,1.39,2.62,3.58,7.57,9.32,32.2,33.27,82.38,28.42Z"/>
  <path class="cls-2" d="m803.63,867.06s-258.25-4.13-274.77-28.92c-16.53-24.79,100.9-36.2,98.84-81.65-.53-11.58,5.41-22.28,14.55-31.81-47.8,13.8-95.8,69.98-129.37,92.76-39.69,26.93,0,59.54,0,59.54,0,0,103.49,18.43,130.67,29.22s266.27,0,266.27,0c0,0,168.7-15.04,181.95-19.57,11.93-4.08,159.11,15.06,188.26,18.91v-40.24c-14.96-5.12-61.43-20-110.69-25.1-59.91-6.2-365.68,26.86-365.68,26.86Z"/>
  <path class="cls-5" d="m1032.95,639.8c-55.78,49.58-309.9,39.25-309.9,39.25,0,0-54.1,17.76-80.82,45.62-9.13,9.52-15.07,20.23-14.55,31.81,2.07,45.45-115.36,56.86-98.84,81.65,16.53,24.79,274.77,28.92,274.77,28.92,0,0,305.76-33.06,365.68-26.86,49.27,5.1,95.74,19.97,110.69,25.1v-251.48c-30.92-3.35-196.55-18.9-247.05,25.99Z"/>
  <path class="cls-7" d="m116.74,626.78c23.72,3.74,118.59,21.22,118.59,21.22h59.16s54.87-26.04,68.38-21.76c13.51,4.28,64.8-8.98,85.97-.48,21.17,8.5,87.32,13.32,103.55,9.66,16.23-3.65,93.62-31.12,93.62-31.12,0,0-2.73-16.37-8-31.31-5.66-16.05-13.87-30.92-13.22-36.1l-3.1.13c5.84,20.38,18.32,52.28,18.32,52.28,0,0-3.4,1.21-8.91,3.14h0c-9.8,3.44-26.29,9.2-42.35,14.63h0c-18.06,6.11-35.57,11.81-42.36,13.34-16.23,3.65-82.39-1.16-103.55-9.66-21.17-8.5-72.45,4.76-85.97.48-13.51-4.28-68.38,21.76-68.38,21.76h-59.16s-94.87-17.48-118.59-21.22c-8.57-1.35-31.83,0-58.03,2.29l-22.43,2.1h0c-10.37,1.02-20.68,2.11-30.27,3.16v15.66c42.02-4.67,101.76-10.57,116.74-8.21Z"/>
  <path class="cls-4" d="m352.6,159.63c-1.59-4.57-2.78-9.08-3.44-13.46-.88,1.91.76,7.14,3.44,13.46Z"/>
  <path class="cls-4" d="m89.19,380.43l10.87-4.88c-5.31,2.06-9.19,3.72-10.87,4.88Z"/>
  <path class="cls-4" d="m631.09,592.45l-42.35,14.63c16.06-5.43,32.55-11.19,42.35-14.63Z"/>
  <path class="cls-4" d="m50.74,536.9l2,77.16h-.04c26.2-2.28,49.46-3.64,58.03-2.28,23.72,3.74,118.59,21.22,118.59,21.22h59.16s54.87-26.04,68.38-21.76c13.51,4.28,64.8-8.98,85.97-.48,21.17,8.5,87.32,13.32,103.55,9.66,6.79-1.53,24.3-7.23,42.36-13.34l6-21.74-29.74-36.35-6.61-12.1s16.61-.9,22.61,11.1c6,12,50.09,44.45,50.09,44.45,5.51-1.94,8.91-3.14,8.91-3.14,0,0-12.48-31.9-18.32-52.28-2-6.96-3.22-12.58-2.9-15.13.89-7.14-5.86-37.85-14.35-57.08-3.39-7.68-7.05-13.54-10.62-15.32-12.48-6.24-39.94-36.2-47.43-53.68-7.49-17.48-52.43-81.14-62.41-81.14s-74.53-54.71-75.33-64.8c-.51-6.39-21.67-29.71-38.74-56.41l-15.89,17.52-4.85,40.17-37.08,18-37.08-9.17,11.5-42.48s14.5-14.52,26.5-27.52,36.15-43.82,36.15-43.82c-6.24-41.19-53.68,0-53.68,0,0,0-36.2,74.9-53.68,86.13s-41.19,73.65-51.18,96.12c-8.24,18.55-65.43,37.38-90.56,47.13l7.93,16.44,14,18.83v47.17l-25-37-44.26-41.88s.05.01.15.02c-19.04-2.4-40.7-5.22-52.9-2.85v243.04c9.6-1.05,19.91-2.14,30.27-3.16l20.47-79.26Zm287.26-229.9s18.35,22.78,21,40c2.65,17.22,17,49,23,85-10,25,15,64,16.74,80s28.26,59,28.26,59c0,0-55,8-60.35,15.91-5.35,7.91-69.65-5.91-69.65-5.91,0,0-33,4-39.13,11.45-6.13,7.45-27.87,6.55-27.87,6.55l-10-18c8-15,93-19,104-21s15-72,25-101-11-152-11-152Z"/>
  <path class="cls-3" d="m324,560c-11,2-96,6-104,21l10,18s21.74.9,27.87-6.55c6.13-7.45,39.13-11.45,39.13-11.45,0,0,64.3,13.83,69.65,5.91,5.35-7.91,60.35-15.91,60.35-15.91,0,0-26.52-43-28.26-59s-26.74-55-16.74-80c-6-36-20.35-67.78-23-85-2.65-17.22-21-40-21-40,0,0,21,123,11,152s-14,99-25,101Z"/>
  <path class="cls-3" d="m352.6,159.63c-2.68-6.32-4.32-11.55-3.44-13.46,0,0-24.15,30.82-36.15,43.82s-26.5,27.52-26.5,27.52l-11.5,42.48,37.08,9.17,37.08-18,4.85-40.17,15.89-17.52h0s-11.28-19.67-17.3-33.84Z"/>
  <polygon class="cls-3" points="50.74 536.9 30.27 616.16 30.27 616.16 52.71 614.06 52.74 614.06 50.74 536.9"/>
  <path class="cls-3" d="m581,548c-6-12-22.61-11.1-22.61-11.1l6.61,12.1,29.74,36.35-6,21.74h0s42.35-14.63,42.35-14.63h0s-44.09-32.45-50.09-44.45Z"/>
  <path class="cls-3" d="m100.06,375.56l-10.87,4.88s-33.88-1.11-36.29-1.3c-.1,0-.16-.01-.15-.02l44.26,41.88,25,37v-47.17l-14-18.83-7.93-16.44h0Z"/>
</svg>