<?xml version="1.0" encoding="UTF-8"?>
<svg id="Backgrounds" xmlns="http://www.w3.org/2000/svg" viewBox="0 0 1412.67 1024">
  <defs>
    <style>
      .cls-1 {
        fill: #53d2de;
      }

      .cls-2 {
        fill: #fff;
      }

      .cls-3 {
        fill: #ffe6ae;
      }

      .cls-4 {
        fill: #9ffff8;
      }

      .cls-5 {
        fill: #53e6de;
      }
    </style>
  </defs>
  <polygon class="cls-3" points="79 740.65 79 741.65 79.01 740.65 79 740.65"/>
  <path class="cls-3" d="m928.5,704.36c-70.11-4.87-275,40.63-338,43.81-63,3.19-205-41.42-293-39.03s-218.5,32.51-218.5,32.51v282.35h1280v-313.52s-133.5,31.33-194.5,31.33-165.89-32.57-236-37.44Z"/>
  <path class="cls-5" d="m79.09,728.87s130.5-30.12,218.5-32.51,230,42.22,293,39.03c63-3.19,267.89-48.69,338-43.81,70.11,4.87,175,37.44,236,37.44s190.76-30.45,194.41-31.31v-204.59H79v247.52s0,0,0,0l.08-11.77Z"/>
  <path class="cls-4" d="m1359,0H79v481h1280V0ZM349.39,246.57h-176.87s-2.52-37.57,25.48-55.57,46,1,46,1c0,0,0-40,26-49,20.17-6.98,24.09,10.71,24.83,19,.02-9.38,2.63-32.45,27.17-38,28.65-6.47,35.09,17.79,35.9,21.51-.48-2.88-1.26-17.51,32.1-17.51,29.41,0,29.12,22.75,27.77,32.08,1.92-2.56,7.39-5.53,22.23-6.08,24.34-.9,26.74,37.19,26.97,44.71.56-1.76,3.89-4.71,20.03-4.71,23,0,29.87,52.57,29.87,52.57h-167.48Zm965.61,52.43c-19,16-44-8-44-8,0,0-3,14-47,17-25.18,1.72-30.05-2.13-29.62-5.74-5.16,6.43-16.1,16.71-34.38,18.74-27,3-11.47-31.48-11.47-31.48,0,0-13.53,6.48-29.53-9.52-15.09-15.09,17.85-23.87,21.64-24.83.07-3.44.18-8.34.36-15.17,1-39,41-22,41-22,11-25,43.09-9.87,43.09-9.87,0,0,8.91-17.13,29-23.39,20.09-6.26,26.91,37.26,26.91,37.26,0,0,28-11,43.52-7.69s9.39,53.44,9.39,53.44c0,0,.09,15.25-18.91,31.25Z"/>
  <path class="cls-2" d="m1359,697.72c-3.65.85-134.27,31.31-194.41,31.31s-165.89-32.57-236-37.44c-70.11-4.87-275,40.63-338,43.81-63,3.19-205-41.42-293-39.03s-218.5,32.51-218.5,32.51l-.08,11.77v1s130.49-30.12,218.49-32.51,230,42.22,293,39.03c63-3.19,267.89-48.69,338-43.81,70.11,4.87,175,37.44,236,37.44s194.5-31.33,194.5-31.33v-12.76Z"/>
  <path class="cls-2" d="m487,194c-16.13,0-19.47,2.95-20.03,4.71-.24-7.53-2.64-45.61-26.97-44.71-14.84.55-20.31,3.52-22.23,6.08,1.35-9.33,1.64-32.08-27.77-32.08-33.36,0-32.58,14.63-32.1,17.51-.81-3.72-7.25-27.98-35.9-21.51-24.54,5.54-27.14,28.61-27.17,38-.74-8.28-4.66-25.98-24.83-19-26,9-26,49-26,49,0,0-18-19-46-1s-25.48,55.57-25.48,55.57h344.35s-6.87-52.57-29.87-52.57Z"/>
  <path class="cls-2" d="m1324.52,214.31c-15.52-3.31-43.52,7.69-43.52,7.69,0,0-6.83-43.52-26.91-37.26-20.09,6.26-29,23.39-29,23.39,0,0-32.09-15.13-43.09,9.87,0,0-40-17-41,22-.18,6.84-.29,11.74-.36,15.17-3.8.95-36.73,9.74-21.64,24.83,16,16,29.53,9.52,29.53,9.52,0,0-15.53,34.48,11.47,31.48,18.28-2.03,29.22-12.31,34.38-18.74-.43,3.61,4.44,7.46,29.62,5.74,44-3,47-17,47-17,0,0,25,24,44,8s18.91-31.25,18.91-31.25c0,0,6.13-50.12-9.39-53.44Z"/>
  <rect class="cls-1" x="79" y="481" width="1280" height="12.13"/>
</svg>