<?xml version="1.0" encoding="UTF-8"?>
<svg id="Backgrounds" xmlns="http://www.w3.org/2000/svg" viewBox="0 0 1412.67 1024">
  <defs>
    <style>
      .cls-1 {
        fill: #d9660f;
      }

      .cls-2 {
        fill: #6b2018;
      }

      .cls-3 {
        fill: #d9250f;
      }

      .cls-4 {
        fill: #42680f;
      }

      .cls-5 {
        fill: #42130f;
      }

      .cls-6 {
        fill: #491e15;
      }
    </style>
  </defs>
  <path class="cls-2" d="m79,0v718.39s.53-.04,1.56-.13c1.91-25.51,5.64-62.04,11.44-65.26,9-5,21-27,21-27,0,0-6,35.43,0,46.22,6,10.78,64-57.22,59-89.22-3.98-25.46-7.95-31.92-9.41-33.51-.38-.32-.59-.49-.59-.49,0,0,.21.09.59.49,4.75,4.08,36.83,33,29.41,64.51-8,34,47.43,32,47.43,32,0,0,5.1,3.43,11.42,9.57l2.52-14.79,7.33-106.86-56.57-28.29-27.24,11.98,24.1-21.41-24.1-13.62,89.05,24.1,18.86-132,19.9-281.81,8.38,138.29,41.9-64.95-5.82-49.24,11.06,44,17.81-39.81-15.71,45.05,36.67-14.67-36.67,19.9-49.24,69.14,1.91,146.69,80.85-33.55,67.05-32.48-66,45.05,49.28,20.98-46.14-7.36-83.4,47.51-5.65,133.73,3.45,112.77c1.53.13,3.29.33,5.26.64,8.08-4.91,16.43-8.45,24.3-8.57,29.06-.43,55.11,25.47,61.51,32.34.86.92,2.28.99,3.22.16,9.22-8.14,52.29-47.93,54.17-82.63,2.1-38.87,23.1-50.87,23.1-50.87,0,0-21,68,17,128s69-94,111-111c42-17,45.13-42.06,45.13-42.06l-79.37-176.83-33.32-3.22,37.52-3.2,10.84-39.79-6.45,44.06,91.35,182.7,96.73-96.73-3.22-54.81,9.67,54.81,38.69-45.14-33.32,53.74,60.19-7.52-60.19,13.97-79.25,85.6v97.15c4.01,2.28,7.52,4.05,10,5.26,13.65,6.65,29.3,33,72,26s32.87-111.11,57.43-121.05c24.57-9.95,36.57-36.95,36.57-36.95,0,0-11,108,19,125,27.66,15.67,41.13,52.9,43.06,58.61-.39-2.37,1.62-9.61,40.94-9.61,47,0,38-54,68-84,4.86-4.86,9.15-10.03,12.93-15.28l-.93-29.72,4-81,5-64-4-60-52,14-21,18,11-18-23,6,21-14,70-20,1.59-19.54c-25.51,2.23-48.72-26.4-51.59-41.59-2.16-11.44-2.76-21.39,5.69-27.17,7.87-13.6,21.73-35.66,27.31-58.69,8-33,38-46,51.22-37s49.78,43,42.78,52c-6.55,8.42-8.72,36.99.86,55.37l7.14-3.37,8-4,19-17-15,23,24.87,6h-28.87l-12.37,7.22c-4.4,11.19-27,24.43-47.77,33.14l-1.86,70.65,4,43,52,32,19-8-16,14,8,19-9-9-52-29.52-10,125.52,2.54,51.21c22.06,16.58,78.39,13.79,92.33-5.34,18.13-24.87,56.13-134.87,56.13-134.87,0,0-23,111,6,145s60-33,78-29,18-36.3,18-36.3V0H79Z"/>
  <path class="cls-6" d="m79,718.39v24.61s.5-10.7,1.56-24.74c-1.02.08-1.56.13-1.56.13Z"/>
  <polygon class="cls-6" points="1116 772 1055 772 1059.56 749.13 709 746.94 709 793 634.56 793 643.16 767.21 644.94 746.54 316.59 744.48 316.64 746 235.44 746 235.79 743.98 79 743 79 1024 1359 1024 1359 751 1114.88 749.47 1116 772"/>
  <path class="cls-3" d="m160,665c16-51,25-60,25-60,0,0-8.52,46,22.74,69,10.13,7.45,24.04,10.07,38.23,10.21l4.88-28.64c-6.32-6.14-11.42-9.57-11.42-9.57,0,0-55.43,2-47.43-32,7.41-31.5-24.66-60.43-29.41-64.51,1.46,1.58,5.44,8.04,9.41,33.51,5,32-53,100-59,89.22-6-10.78,0-46.22,0-46.22,0,0-12,22-21,27-5.81,3.23-9.53,39.75-11.44,65.26-1.05,14.03-1.56,24.74-1.56,24.74,0,0,65-27,81-78Z"/>
  <path class="cls-3" d="m755.96,719.17c55.04,13.83,99.04-87.17,99.04-87.17l7-22s26,51,30,75,35,2,35,2c0,0-4,4,6,22s94,1,121-39c6.9-10.22,12.29-19.2,16.5-26.9l-1.57-50.38c-3.78,5.26-8.07,10.43-12.93,15.28-30,30-21,84-68,84-39.32,0-41.33,7.24-40.94,9.61-1.93-5.71-15.4-42.93-43.06-58.61-30-17-19-125-19-125,0,0-12,27-36.57,36.95-24.57,9.95-14.74,114.05-57.43,121.05s-58.35-19.35-72-26c-2.48-1.21-5.99-2.98-10-5.26v37.09c14.52,18.58,30.6,33.24,46.96,37.35Z"/>
  <path class="cls-3" d="m1341,597c-18-4-49,63-78,29s-6-145-6-145c0,0-38,110-56.13,134.87-13.95,19.13-70.28,21.92-92.33,5.34l2,40.39c7.06,10.67,14.87,19.08,22.47,20.4,23,4,80-51,95-74,16,0,36.26,53.5,36.26,53.5,0,0,13.74,54.5,33.74,57.5s49-109,55-111,6,138.5,6,142.89v-190.2s0,40.3-18,36.3Z"/>
  <path class="cls-3" d="m162,549s.21.17.59.49c-.37-.41-.59-.49-.59-.49Z"/>
  <path class="cls-3" d="m418,727c75,60,162-68,194-102s37-53,37-53c0,0,3.41,8.75,9.4,21.99l6.26-41.73-5.53-12.32s-3.13,25.06-45.13,42.06c-42,17-73,171-111,111s-17-128-17-128c0,0-21,12-23.1,50.87-1.88,34.7-44.95,74.49-54.17,82.63-.94.83-2.37.76-3.22-.16-6.39-6.87-32.44-32.78-61.51-32.34-7.88.12-16.23,3.66-24.3,8.57,16.75,2.65,49.36,13.27,98.3,52.43Z"/>
  <path class="cls-1" d="m1353,608c-6,2-35,114-55,111s-33.74-57.5-33.74-57.5c0,0-20.26-53.5-36.26-53.5-15,23-72,78-95,74-7.59-1.32-15.41-9.73-22.47-20.4l4.35,87.88,244.12,1.53v-.11c0-4.39-.09-144.86-6-142.89Z"/>
  <path class="cls-1" d="m316.59,744.48l328.35,2.05,3.59-41.67,7.52-41.91-1.07-46.21,3.41-22.75c-5.99-13.24-9.4-21.99-9.4-21.99,0,0-5,19-37,53s-119,162-194,102c-48.94-39.15-81.55-49.77-98.3-52.43-1.97-.31-3.72-.52-5.26-.64l2.16,70.55Z"/>
  <path class="cls-1" d="m1071,659l-.5-15.9c-4.21,7.71-9.6,16.68-16.5,26.9-27,40-111,57-121,39s-6-22-6-22c0,0-31,22-35-2s-30-75-30-75l-7,22s-44,101-99.04,87.17c-16.36-4.11-32.43-18.77-46.96-37.35v65.11l350.56,2.19,1.22-6.13,10.22-84Z"/>
  <path class="cls-1" d="m245.97,684.21c-14.19-.14-28.1-2.76-38.23-10.21-31.26-23-22.74-69-22.74-69,0,0-9,9-25,60s-81,78-81,78l156.79.98,10.19-59.77Z"/>
  <polygon class="cls-5" points="235.79 743.98 235.44 746 316.64 746 316.59 744.48 314.44 673.93 310.99 561.16 316.64 427.43 400.04 379.92 446.18 387.28 396.9 366.3 462.9 321.26 395.85 353.73 315 387.28 313.09 240.59 362.33 171.45 398.99 151.54 362.33 166.21 378.04 121.16 360.23 160.97 349.17 116.97 354.99 166.21 313.09 231.16 304.71 92.87 284.8 374.68 265.94 506.68 176.9 482.59 200.99 496.21 176.9 517.62 204.13 505.64 260.71 533.92 253.37 640.78 250.85 655.57 245.97 684.21 235.79 743.98"/>
  <polygon class="cls-5" points="658.4 593.99 654.98 616.74 656.06 662.96 648.53 704.87 644.94 746.54 643.16 767.21 634.56 793 709 793 709 746.94 709 681.83 709 644.74 709 547.59 788.25 461.98 848.43 448.01 788.25 455.53 821.57 401.8 782.88 446.94 773.2 392.12 776.43 446.94 679.7 543.66 588.35 360.96 594.8 316.89 583.96 356.68 546.43 359.88 579.75 363.11 659.13 539.94 664.66 552.26 658.4 593.99"/>
  <path class="cls-5" d="m1159.63,279.22l12.37-7.22h28.87l-24.87-6,15-23-19,17-8,4-7.14,3.37c.66,1.26,1.37,2.47,2.14,3.63,1.68,2.52,1.77,5.3.63,8.22Z"/>
  <path class="cls-5" d="m1071,659l-10.22,84-1.22,6.13-4.56,22.87h61l-1.12-22.53-4.35-87.88-2-40.39-2.54-51.21,10-125.52,52,29.52,9,9-8-19,16-14-19,8-52-32-4-43,1.86-70.65c-4.71,1.97-9.32,3.71-13.61,5.15-3.74,2.99-8.41,5.35-14.25,6.5-1.14.22-2.27.36-3.41.46l-1.59,19.54-70,20-21,14,23-6-11,18,21-18,52-14,4,60-5,64-4,81,.93,29.72,1.57,50.38.5,15.9Z"/>
  <path class="cls-4" d="m1076,232s0,22,6,23,18.3-38.65,18.3-38.65c0,0,7.91,31.48,4.3,37.57-3.61,6.09,1.78,15.04,5.09,16.56s3.3,17.52,3.3,17.52c0,0-1.34,18.78-14.75,29.5,4.29-1.43,8.9-3.17,13.61-5.15,20.77-8.71,43.37-21.94,47.77-33.14,1.15-2.92,1.06-5.7-.63-8.22-.77-1.15-1.48-2.37-2.14-3.63-9.59-18.38-7.42-46.95-.86-55.37,7-9-29.57-43-42.78-52s-43.22,4-51.22,37c-5.59,23.04-19.45,45.09-27.31,58.69,3.27-2.24,7.89-3.86,14.31-4.69,23-3,27-19,27-19Z"/>
  <path class="cls-3" d="m1098.25,317.5c13.41-10.72,14.75-29.5,14.75-29.5,0,0,0-16-3.3-17.52s-8.7-10.48-5.09-16.56c3.61-6.09-4.3-37.57-4.3-37.57,0,0-12.3,39.65-18.3,38.65s-6-23-6-23c0,0-4,16-27,19-6.42.84-11.04,2.45-14.31,4.69-8.45,5.79-7.85,15.73-5.69,27.17,2.87,15.2,26.08,43.83,51.59,41.59,1.13-.1,2.27-.24,3.41-.46,5.84-1.15,10.52-3.51,14.25-6.5Z"/>
</svg>